{"extensionsUsed" : ["KHR_materials_volume", "FB_ngon_encoding"], "accessors" : [{"bufferView" : 0, "byteOffset" : 0, "componentType" : 5123, "count" : 37422, "type" : "SCALAR", "max" : [37421], "min" : [0]}, {"bufferView" : 1, "byteOffset" : 0, "componentType" : 5126, "count" : 37422, "type" : "VEC3", "max" : [192.8111572265625, 360.72821044921875, 30.084575653076172], "min" : [163.05657958984375, 33.32018280029297, 0.2869698405265808], "name" : "POSITION"}], "asset" : {"generator" : "Aspose.3D 24.6.0", "version" : "2.0"}, "buffers" : [{"uri" : "data:application/octet-stream;base64,", "byteLength" : 523916}], "bufferViews" : [{"buffer" : 0, "byteOffset" : 0, "byteLength" : 74844, "target" : 34963}, {"buffer" : 0, "byteOffset" : 74848, "byteLength" : 449064, "byteStride" : 12, "target" : 34962}], "materials" : [{"name" : "DefaultMaterial", "pbrMetallicRoughness" : {"baseColorFactor" : [0.800000011920929, 0.800000011920929, 0.800000011920929, 1], "metallicFactor" : 0, "roughnessFactor" : 1}, "emissiveFactor" : [0, 0, 0], "alphaMode" : "OPAQUE", "doubleSided" : false}], "meshes" : [{"primitives" : [{"attributes" : {"POSITION" : 1}, "indices" : 0, "material" : 0, "mode" : 4}]}], "nodes" : [{"mesh" : 0, "name" : "node"}, {"children" : [0], "name" : "RootNode"}], "scene" : 0, "scenes" : [{"nodes" : [1]}]}